REM DIRINDEX 1\2,1\3,1\4,1\6,1\5\7,1\5\8
REM DIRNAME cjc114,folder01,folder02,folder03,folder04,folder05,folder06,folder07
TITLE ""
FILE "DB4500_5th_6C_43.mp3" MP3
  TRACK 01 AUDIO
    TITLE "0:"
    INDEX 01 00:00:00
  TRACK 02 AUDIO
    TITLE "2:cjc114_4817"
    INDEX 01 00:00:01
  TRACK 03 AUDIO
    TITLE "0:"
    INDEX 01 00:02:38
  TRACK 04 AUDIO
    TITLE "3:cjc114_4818"
    INDEX 01 00:02:51
  TRACK 05 AUDIO
    TITLE "0:"
    INDEX 01 00:03:66
  TRACK 06 AUDIO
    TITLE "4:cjc114_4819"
    INDEX 01 00:04:07
  TRACK 07 AUDIO
    TITLE "0:"
    INDEX 01 00:07:54
  TRACK 08 AUDIO
    TITLE "2:cjc114_4820"
    INDEX 01 00:08:19
  TRACK 09 AUDIO
    TITLE "0:"
    INDEX 01 00:09:28
  TRACK 10 AUDIO
    TITLE "3:cjc114_4821"
    INDEX 01 00:09:44
  TRACK 11 AUDIO
    TITLE "0:"
    INDEX 01 00:10:74
  TRACK 12 AUDIO
    TITLE "4:cjc114_4822"
    INDEX 01 00:11:13
  TRACK 13 AUDIO
    TITLE "0:"
    INDEX 01 00:13:71
  TRACK 14 AUDIO
    TITLE "2:cjc114_4823"
    INDEX 01 00:14:31
  TRACK 15 AUDIO
    TITLE "0:"
    INDEX 01 00:15:44
  TRACK 16 AUDIO
    TITLE "3:cjc114_4824"
    INDEX 01 00:15:60
  TRACK 17 AUDIO
    TITLE "0:"
    INDEX 01 00:16:73
  TRACK 18 AUDIO
    TITLE "4:cjc114_4825"
    INDEX 01 00:17:14
  TRACK 19 AUDIO
    TITLE "0:"
    INDEX 01 00:20:22
  TRACK 20 AUDIO
    TITLE "2:cjc114_4826"
    INDEX 01 00:20:59
  TRACK 21 AUDIO
    TITLE "0:"
    INDEX 01 00:21:53
  TRACK 22 AUDIO
    TITLE "3:cjc114_4827"
    INDEX 01 00:21:66
  TRACK 23 AUDIO
    TITLE "0:"
    INDEX 01 00:22:66
  TRACK 24 AUDIO
    TITLE "4:cjc114_4828"
    INDEX 01 00:23:04
  TRACK 25 AUDIO
    TITLE "0:"
    INDEX 01 00:26:13
  TRACK 26 AUDIO
    TITLE "2:cjc114_4829"
    INDEX 01 00:26:50
  TRACK 27 AUDIO
    TITLE "0:"
    INDEX 01 00:27:49
  TRACK 28 AUDIO
    TITLE "3:cjc114_4830"
    INDEX 01 00:27:67
  TRACK 29 AUDIO
    TITLE "0:"
    INDEX 01 00:28:72
  TRACK 30 AUDIO
    TITLE "4:cjc114_4831"
    INDEX 01 00:29:09
  TRACK 31 AUDIO
    TITLE "0:"
    INDEX 01 00:32:00
  TRACK 32 AUDIO
    TITLE "2:cjc114_4832"
    INDEX 01 00:32:39
  TRACK 33 AUDIO
    TITLE "0:"
    INDEX 01 00:33:56
  TRACK 34 AUDIO
    TITLE "3:cjc114_4833"
    INDEX 01 00:33:71
  TRACK 35 AUDIO
    TITLE "0:"
    INDEX 01 00:35:14
  TRACK 36 AUDIO
    TITLE "4:cjc114_4834"
    INDEX 01 00:35:25
  TRACK 37 AUDIO
    TITLE "0:"
    INDEX 01 00:39:05
  TRACK 38 AUDIO
    TITLE "2:cjc114_4835"
    INDEX 01 00:39:41
  TRACK 39 AUDIO
    TITLE "0:"
    INDEX 01 00:40:64
  TRACK 40 AUDIO
    TITLE "3:cjc114_4836"
    INDEX 01 00:41:02
  TRACK 41 AUDIO
    TITLE "0:"
    INDEX 01 00:42:18
  TRACK 42 AUDIO
    TITLE "4:cjc114_4837"
    INDEX 01 00:42:33
  TRACK 43 AUDIO
    TITLE "0:"
    INDEX 01 00:45:00
  TRACK 44 AUDIO
    TITLE "2:cjc114_4838"
    INDEX 01 00:45:37
  TRACK 45 AUDIO
    TITLE "0:"
    INDEX 01 00:46:56
  TRACK 46 AUDIO
    TITLE "3:cjc114_4839"
    INDEX 01 00:46:70
  TRACK 47 AUDIO
    TITLE "0:"
    INDEX 01 00:49:14
  TRACK 48 AUDIO
    TITLE "4:cjc114_4840"
    INDEX 01 00:49:27
  TRACK 49 AUDIO
    TITLE "0:"
    INDEX 01 00:52:41
  TRACK 50 AUDIO
    TITLE "2:cjc114_4841"
    INDEX 01 00:53:04
  TRACK 51 AUDIO
    TITLE "0:"
    INDEX 01 00:54:15
  TRACK 52 AUDIO
    TITLE "3:cjc114_4842"
    INDEX 01 00:54:30
  TRACK 53 AUDIO
    TITLE "0:"
    INDEX 01 00:55:32
  TRACK 54 AUDIO
    TITLE "4:cjc114_4843"
    INDEX 01 00:55:46
  TRACK 55 AUDIO
    TITLE "0:"
    INDEX 01 00:58:38
  TRACK 56 AUDIO
    TITLE "4:cjc114_4844"
    INDEX 01 00:58:69
  TRACK 57 AUDIO
    TITLE "0:"
    INDEX 01 01:01:40
  TRACK 58 AUDIO
    TITLE "2:cjc114_4845"
    INDEX 01 01:02:05
  TRACK 59 AUDIO
    TITLE "0:"
    INDEX 01 01:03:10
  TRACK 60 AUDIO
    TITLE "3:cjc114_4846"
    INDEX 01 01:03:24
  TRACK 61 AUDIO
    TITLE "0:"
    INDEX 01 01:04:43
  TRACK 62 AUDIO
    TITLE "4:cjc114_4847"
    INDEX 01 01:04:56
  TRACK 63 AUDIO
    TITLE "0:"
    INDEX 01 01:07:61
  TRACK 64 AUDIO
    TITLE "2:cjc114_4848"
    INDEX 01 01:08:21
  TRACK 65 AUDIO
    TITLE "0:"
    INDEX 01 01:09:22
  TRACK 66 AUDIO
    TITLE "3:cjc114_4849"
    INDEX 01 01:09:34
  TRACK 67 AUDIO
    TITLE "0:"
    INDEX 01 01:10:37
  TRACK 68 AUDIO
    TITLE "4:cjc114_4850"
    INDEX 01 01:10:49
  TRACK 69 AUDIO
    TITLE "0:"
    INDEX 01 01:14:55
  TRACK 70 AUDIO
    TITLE "2:cjc114_4851"
    INDEX 01 01:15:17
  TRACK 71 AUDIO
    TITLE "0:"
    INDEX 01 01:16:22
  TRACK 72 AUDIO
    TITLE "3:cjc114_4852"
    INDEX 01 01:16:34
  TRACK 73 AUDIO
    TITLE "0:"
    INDEX 01 01:17:51
  TRACK 74 AUDIO
    TITLE "4:cjc114_4853"
    INDEX 01 01:17:65
  TRACK 75 AUDIO
    TITLE "0:"
    INDEX 01 01:21:37
